<?xml version="1.0" encoding="utf-8"?>
<!DOCTYPE svg PUBLIC "-//W3C//DTD SVG 20010904//EN" "http://www.w3.org/TR/2001/REC-SVG-20010904/DTD/svg10.dtd">
<svg version="1.0" xmlns="http://www.w3.org/2000/svg" width="126px" height="136px" viewBox="0 0 126 136" preserveAspectRatio="xMidYMid meet">
 <g fill="#032386">
  <path d="M13 92.2 l0 -35.7 26.3 -26.3 c14.4 -14.4 26.6 -26.2 27.2 -26.2 0.5 0 11.8 10.8 25.1 24.1 l24.2 24.1 0.7 8.1 c0.7 8.1 0.7 8.2 -2.2 10.4 -4.3 3.5 -12.7 6.3 -19.1 6.3 -4.9 0 -7.2 -0.7 -16.1 -5.2 -9 -4.6 -11.2 -5.3 -16 -5.2 -3.4 0 -7.5 0.9 -10.5 2.3 -2.7 1.1 -5.1 2 -5.3 1.8 -1 -1 4.3 -5.8 8.9 -8.1 8.3 -4.1 13.5 -3.7 26 2.4 11 5.4 13.6 5.7 21.6 2.4 2.9 -1.2 3.2 -1.7 3.2 -5.6 0 -4.3 -0.2 -4.5 -20.5 -24.8 l-20.5 -20.5 -22 22 -22 22 0 28.7 0 28.8 42.5 0 42.5 0 0 -7.9 0 -7.8 -5.2 1.4 c-7.4 1.9 -13.3 0.9 -21.2 -3.7 -3.6 -2.1 -8.2 -4.4 -10.2 -5 -4.9 -1.7 -14 -0.7 -19.2 1.9 -2.3 1.2 -4.2 1.7 -4.2 1.2 0 -2 9.2 -8.9 13.5 -10.1 6.5 -1.8 11.1 -0.8 21.6 4.5 8.2 4.2 9.9 4.7 14.1 4.3 2.8 -0.3 8.1 -2.1 12.4 -4.2 4.1 -2.1 7.7 -3.6 7.8 -3.4 0.2 0.1 0.1 9 -0.2 19.6 l-0.5 19.2 -51.3 0 -51.4 0 0 -35.8z"/>
  <path d="M80 85.8 c-9.5 -4.8 -11 -5.3 -17 -5.3 -4.4 0.1 -8 0.8 -11.2 2.2 -2.7 1.2 -4.8 1.8 -4.8 1.3 0 -2 8.8 -8.2 13.8 -9.6 6.7 -2 11.2 -1 22.1 4.7 6.9 3.7 8.2 4.1 13.3 3.7 4.2 -0.3 7.8 -1.5 12.8 -4.1 3.9 -2 7.3 -3.7 7.6 -3.7 0.3 0 0.4 1.9 0.2 4.2 -0.3 4.2 -0.5 4.4 -6.9 7.6 -4.8 2.5 -8.4 3.5 -13 3.9 -6.2 0.5 -6.8 0.3 -16.9 -4.9z"/>
 </g>
</svg>