<!DOCTYPE svg PUBLIC "-//W3C//DTD SVG 20010904//EN" "http://www.w3.org/TR/2001/REC-SVG-20010904/DTD/svg10.dtd">
<svg version="1.0" xmlns="http://www.w3.org/2000/svg" width="698px" height="522px" viewBox="0 0 6980 5220" preserveAspectRatio="xMidYMid meet">
<g id="layer101" fill="#0d2177" stroke="none">
 <path d="M2212 4945 c-60 -31 -95 -72 -111 -130 -7 -25 -11 -153 -11 -337 0 -170 -4 -299 -9 -303 -5 -3 -99 44 -208 105 -109 60 -212 113 -230 116 -117 22 -223 -62 -223 -177 0 -52 32 -122 68 -147 24 -17 270 -156 447 -253 33 -18 80 -45 105 -59 l45 -26 6 -135 c4 -74 7 -257 8 -406 1 -268 1 -273 -19 -273 -12 0 -94 42 -183 93 -89 52 -234 135 -322 186 -88 51 -166 98 -173 105 -13 13 -13 12 19 489 9 139 8 164 -6 207 -51 153 -266 167 -336 22 -17 -35 -23 -73 -30 -200 -12 -224 -19 -283 -33 -288 -7 -3 -131 63 -275 146 -144 83 -282 156 -306 162 -80 21 -167 -19 -204 -95 -26 -53 -26 -109 -2 -162 24 -52 35 -61 176 -143 337 -194 391 -226 397 -236 10 -16 2 -22 -204 -145 -217 -130 -240 -152 -246 -242 -5 -73 9 -110 61 -154 47 -41 109 -54 170 -35 23 6 102 48 177 93 74 44 202 120 284 169 93 56 155 87 165 83 34 -13 617 -349 635 -366 11 -10 18 -20 15 -23 -5 -5 -432 -246 -534 -301 -38 -21 -79 -44 -90 -52 -30 -20 -41 -17 -124 34 -479 292 -462 283 -532 283 -168 0 -243 -201 -118 -316 19 -17 103 -73 187 -124 102 -62 152 -97 150 -107 -3 -16 -23 -28 -323 -195 -215 -120 -239 -137 -265 -188 -74 -146 67 -311 221 -258 19 6 146 74 284 152 137 77 258 140 270 140 19 1 20 -6 25 -226 6 -252 4 -248 82 -311 31 -24 46 -29 95 -30 91 0 160 48 183 131 6 22 10 165 10 348 0 284 2 312 18 326 25 22 659 377 680 380 16 3 17 -25 19 -412 2 -228 -1 -420 -5 -426 -4 -6 -97 -62 -207 -124 -303 -171 -336 -192 -369 -233 -28 -35 -31 -46 -31 -106 0 -55 4 -74 25 -104 39 -57 89 -80 164 -75 58 3 76 11 235 102 96 55 177 94 181 90 5 -5 10 -155 12 -334 3 -291 6 -328 22 -358 25 -46 89 -90 142 -98 87 -13 181 49 203 133 6 24 12 860 17 2264 l7 2226 -23 47 c-47 97 -157 132 -258 81z"/>
 <path d="M4738 4808 c-192 -220 -316 -365 -538 -623 -511 -594 -604 -700 -620 -703 -11 -2 -125 111 -335 335 -175 186 -322 340 -327 341 -4 2 -8 -766 -8 -1707 0 -941 2 -1711 4 -1711 5 0 631 680 679 737 16 18 36 33 46 33 10 0 202 -196 462 -471 244 -259 478 -507 519 -551 l75 -79 876 3 877 3 -142 151 c-77 83 -240 256 -362 385 -1018 1080 -1417 1506 -1421 1516 -7 17 -111 -98 1233 1363 450 490 952 1038 987 1077 l39 43 -961 0 -961 0 -122 -142z"/>
 </g>

</svg>